<svg width="600" height="92" viewBox="0 0 600 92" fill="none" xmlns="http://www.w3.org/2000/svg"><path d="M229.856 66.1495L210.356 27.1688C209.393 25.2438 207.467 24.161 205.3 24.0407H195.189C193.022 24.0407 191.096 25.2438 190.133 27.1688L170.753 66.1495C170.512 66.6308 170.633 67.2323 171.114 67.4729C171.235 67.5932 171.475 67.5932 171.596 67.5932H180.263C180.744 67.5932 181.346 67.3526 181.587 66.8714L185.92 58.3293H214.689L219.022 66.8714C219.263 67.3526 219.745 67.7136 220.346 67.5932H229.013C229.615 67.4729 229.976 66.9917 229.976 66.3901C229.976 66.3901 229.976 66.2698 229.856 66.1495ZM190.253 49.6669L198.318 33.425C198.559 33.064 198.92 32.8234 199.281 32.8234H201.328C201.689 32.8234 202.17 33.064 202.291 33.425L210.356 49.7872L190.253 49.6669ZM600 25.1235V31.7406C600 32.3422 599.518 32.8234 598.917 32.8234H581.342V72.2854C581.342 72.6463 580.981 73.0072 580.62 73.0072C580.379 73.0072 580.259 72.8869 580.139 72.7666L571.351 65.3073C570.629 64.7058 570.268 63.8636 570.268 63.0214V32.7031H556.305C555.462 32.7031 554.74 32.2219 554.379 31.5L551.009 24.7626C550.888 24.5219 551.009 24.161 551.249 24.0407C551.37 24.0407 551.37 23.9204 551.49 23.9204H598.796C599.398 24.0407 600 24.522 600 25.1235ZM505.628 33.5453V41.6061H537.768C540.175 41.7264 542.101 43.6514 541.981 46.0576C541.86 48.3435 540.055 50.1482 537.768 50.2685H505.628V56.284C505.628 57.8481 506.832 59.0512 508.397 59.0512H544.508C545.11 59.0512 545.592 59.5324 545.592 60.134V66.7511C545.592 67.3526 545.11 67.7135 544.508 67.8339H505.388C499.249 67.8339 494.313 62.9011 494.313 56.7653V29.8156C494.313 26.8079 496.841 24.2813 499.85 24.2813H544.508C545.11 24.2813 545.592 24.7626 545.592 25.3641V31.9812C545.592 32.5828 545.11 32.9437 544.508 33.064H506.23C505.989 32.8234 505.628 33.064 505.628 33.5453ZM484.924 25.3641V63.623C484.924 66.6308 482.517 69.037 479.508 69.037C478.183 69.037 476.98 68.5557 476.017 67.7136L442.313 39.0796V66.3901C442.313 67.112 441.711 67.7136 440.988 67.7136H432.442C431.72 67.7136 430.998 67.112 430.998 66.3901V28.2516C430.998 25.2438 433.405 22.8376 436.414 22.8376C437.738 22.8376 438.942 23.3188 439.905 24.161L473.609 52.795V25.4844C473.609 24.7626 474.211 24.0407 474.933 24.0407H483.48C484.322 24.0407 484.924 24.6423 484.924 25.3641ZM423.775 45.817C423.775 48.8247 421.368 51.3513 418.238 51.3513C415.229 51.3513 412.701 48.945 412.701 45.817C412.701 42.8092 415.108 40.2827 418.238 40.2827C421.368 40.403 423.775 42.8092 423.775 45.817ZM379.839 33.5453V41.6061H402.108C404.516 41.7264 406.442 43.6514 406.321 46.0576C406.201 48.3435 404.395 50.1482 402.108 50.2685H379.839V56.284C379.839 57.8481 381.043 59.0512 382.608 59.0512H418.72C419.322 59.0512 419.803 59.5324 419.803 60.134V66.7511C419.803 67.3526 419.322 67.8339 418.72 67.8339H379.599C373.46 67.8339 368.525 62.9011 368.525 56.7653V29.8156C368.525 26.8079 371.052 24.2813 374.062 24.2813H418.72C419.322 24.2813 419.803 24.7626 419.803 25.3641V31.9812C419.803 32.5828 419.322 33.064 418.72 33.064H380.441C380.08 32.8234 379.839 33.064 379.839 33.5453ZM363.83 60.0137V66.6308C363.83 67.2323 363.349 67.7136 362.747 67.7136H331.33C325.191 67.7136 320.255 62.7808 320.255 56.6449V25.2438C320.255 24.6423 320.737 24.161 321.339 24.161H330.607C331.209 24.161 331.691 24.6423 331.691 25.2438V56.284C331.691 57.8481 332.894 59.0512 334.459 59.0512H362.867C363.469 58.9309 363.83 59.4121 363.83 60.0137ZM314.357 25.1235V31.7406C314.357 32.3422 313.876 32.8234 313.274 32.8234H296.903V72.2854C296.903 72.6463 296.542 73.0072 296.181 73.0072C296.061 73.0072 295.82 72.8869 295.699 72.8869L286.912 65.4276C286.19 64.8261 285.829 63.9839 285.829 63.1417V32.7031H275.236C274.394 32.7031 273.671 32.2219 273.31 31.5L269.94 24.7626C269.819 24.5219 270.06 24.0407 270.421 24.0407H313.394C313.876 24.0407 314.357 24.522 314.357 25.1235ZM158.836 45.4561C160.883 44.7342 164.975 42.6889 164.975 37.1546C164.975 27.65 157.873 24.0407 149.447 24.0407H117.067C116.465 24.0407 115.984 24.522 115.984 25.1235V66.6308C115.984 67.2323 116.465 67.7136 117.067 67.7136H153.54C158.836 67.5932 166.54 64.5855 166.54 54.8403C166.54 48.5841 161.003 46.0576 158.836 45.4561ZM127.058 33.425C127.058 33.064 127.299 32.8234 127.66 32.7031H127.78H147.762C149.808 32.7031 154.503 32.7031 154.503 37.0343C154.503 41.3655 149.808 41.3655 147.762 41.3655H127.058V33.425ZM150.29 58.8105H127.78C127.419 58.8105 127.179 58.5699 127.058 58.209V58.0887V50.1482H150.17C152.457 50.1482 156.068 50.1482 156.068 54.4794C156.068 59.0512 151.975 58.8105 150.29 58.8105ZM264.403 25.1235V31.7406C264.403 32.3422 263.921 32.8234 263.319 32.8234H250.44V72.2854C250.44 72.6463 250.078 73.0072 249.717 73.0072C249.597 73.0072 249.356 72.8869 249.236 72.8869L240.449 65.4276C239.726 64.8261 239.365 63.9839 239.365 63.1417V32.7031H225.402C224.56 32.7031 223.837 32.2219 223.476 31.5L220.106 24.7626C219.985 24.5219 220.226 24.161 220.467 24.0407C220.467 24.0407 220.467 24.0407 220.587 24.0407H263.199C263.921 24.0407 264.403 24.522 264.403 25.1235ZM75.1778 31.2594C63.1406 25.7251 45.807 22.2361 29.5568 23.4392C30.3994 18.0252 32.3253 14.2955 35.6957 13.5737C40.2699 12.4909 45.2051 15.4986 49.8997 20.9126C53.0293 21.2736 56.6405 21.9954 59.1683 22.597C50.5015 6.35503 38.9458 -2.6683 30.1586 0.7004C23.4178 3.22693 20.0474 12.4909 20.4085 24.7626C11.7417 26.5672 4.8805 29.936 0.547103 34.6281C0.306359 34.8687 -0.175131 35.4703 0.0656128 35.8312C0.185985 36.0718 0.667471 35.8312 0.787843 35.7109C5.84347 32.2219 12.3436 30.2969 20.6492 29.0938C21.853 42.328 27.3901 59.0512 36.6587 72.4057C31.6031 74.451 27.3901 74.5713 24.9826 72.0447C21.7326 68.676 21.853 62.9011 24.2604 56.0434C23.0567 53.1559 21.853 49.6669 21.1307 47.1404C11.3806 62.6605 9.33427 77.2181 16.677 83.1133C22.2141 87.5648 31.8438 86.0008 42.4366 79.504C48.3348 86.1211 54.5942 90.332 60.9739 91.7757C61.335 91.896 62.0572 91.896 62.298 91.6554C62.4183 91.4148 61.9369 91.1742 61.8165 91.0539C56.2794 88.407 51.3441 83.8352 46.1681 77.0978C57.0016 69.5182 68.6777 56.284 75.6593 41.6061C79.8723 44.9748 82.1594 48.5841 81.1964 51.8325C79.8723 56.284 74.8167 59.0512 67.7147 60.4949C65.7888 63.0214 63.3813 65.7886 61.5757 67.7136C79.8723 68.3151 93.5947 62.9011 95.0392 53.6372C96.1225 46.5388 89.8632 39.0796 78.9093 33.1843C81.6779 24.7626 82.1594 17.183 80.2334 11.0471C80.113 10.6862 79.8723 9.96435 79.5112 9.96435C79.2704 9.96435 79.2704 10.4456 79.2704 10.6862C79.8723 16.8221 78.3075 23.3189 75.1778 31.2594ZM41.4736 70.2401C33.7698 57.8481 29.316 43.1701 29.316 28.3719C44.0014 27.8907 58.9276 31.3797 71.687 38.7186C64.7054 51.7122 54.233 62.9011 41.4736 70.2401Z" fill="white"/></svg>
