<svg xmlns="http://www.w3.org/2000/svg" viewBox="0 0 151 33" fill="none"><path d="M0 4.72634L13.3919 2.86957V15.867H0M14.9822 2.61637L32.6429 0V15.7826H14.9822M0 17.2174H13.3919V30.2992L0 28.4425M14.9822 17.3862H32.6429V33L14.9822 30.468M42.6031 6.41432H45.1141C46.4533 11.2251 47.7088 15.9514 49.048 20.7621C49.2991 21.7749 49.5502 22.7877 49.6339 23.8005C50.9731 17.8926 52.8982 12.1535 54.4048 6.32992H56.581C57.7527 10.4655 58.8408 14.601 59.9289 18.821C60.3474 20.509 60.9333 22.1125 61.1007 23.8005C62.3562 17.977 64.1139 12.2379 65.5368 6.32992H68.0478L62.5236 26.3325H59.8452C58.506 21.5217 57.1668 16.7954 55.8277 11.9847C55.5766 11.2251 55.4929 10.3811 55.4092 9.62148C55.3255 10.2967 55.2418 10.9719 55.0744 11.6471C53.7352 16.5422 52.3123 21.3529 51.0568 26.2481C50.1361 26.3325 49.2991 26.3325 48.3784 26.3325C46.4533 19.7494 44.5282 13.0818 42.6031 6.41432ZM69.6381 6.58312C69.7218 5.73913 70.4751 5.14834 71.3121 5.31714C72.1491 5.40153 72.735 6.16113 72.6513 7.00512C72.5676 7.84911 71.8143 8.4399 70.9773 8.3555C70.3077 8.2711 69.8055 7.76471 69.7218 7.08951M69.9729 12.0691H72.2328V26.4169H69.9729M78.1755 14.3478C79.431 12.0691 82.4441 10.9719 84.8714 12.0691C86.7965 12.8286 87.4661 15.1074 87.5498 16.9642C87.6335 20.087 87.5498 23.2097 87.6335 26.4169H85.3736C85.3736 23.3785 85.4573 20.4246 85.2899 17.3862C85.2062 15.867 84.6203 14.0946 83.03 13.757C80.6864 13.0818 78.3429 15.1918 78.2592 17.555C78.1755 20.509 78.2592 23.5473 78.2592 26.5013H75.9993V12.1535H78.2592C78.1755 12.8286 78.1755 13.5882 78.1755 14.3478ZM101.025 5.31714H103.285V26.4169H101.025C101.025 25.6573 101.025 24.8977 100.942 24.1381C99.3515 27.0921 94.9991 27.6829 92.4881 25.5729C90.7304 24.0537 90.1445 21.5217 90.3119 19.3274C90.3119 17.0486 91.0652 14.601 92.9066 13.0818C95.2502 11.1407 99.4352 11.2251 101.025 14.0946V5.31714ZM96.1709 13.6726C94.4132 13.9258 93.1577 15.6138 92.8229 17.3018C92.4044 19.3274 92.4881 21.7749 93.7436 23.4629C95.1665 25.3197 98.1797 25.4041 99.6863 23.6317C100.691 22.5345 101.025 21.0153 101.025 19.665C101.025 18.1458 101.193 16.4578 100.188 15.1918C99.2678 13.9258 97.6775 13.335 96.1709 13.6726ZM111.99 11.7315C113.999 11.5627 116.175 11.9003 117.682 13.335C119.356 14.9386 119.858 17.3862 119.774 19.5806C119.774 21.6061 119.021 23.6317 117.514 25.0665C114.501 27.8517 108.81 27.2609 106.801 23.3785C105.294 20.1714 105.545 15.6982 108.391 13.2506C109.479 12.4066 110.735 11.9847 111.99 11.7315ZM111.572 13.757C108.307 14.7698 107.721 19.1586 108.726 21.9437C109.563 24.4757 112.743 25.5729 115.003 24.3913C116.594 23.7161 117.263 21.9437 117.431 20.2558C117.598 18.399 117.431 16.2046 116.091 14.7698C115.003 13.5882 113.162 13.335 111.572 13.757ZM120.779 12.0691H123.122C124.043 15.445 124.964 18.9054 125.884 22.2813C126.052 22.9565 126.135 23.6317 126.219 24.2225C127.307 20.087 128.646 16.1202 129.818 11.9847H131.827C132.831 16.0358 134.171 20.087 135.008 24.2225C135.928 20.1714 137.1 16.1202 138.104 12.0691C138.858 12.0691 139.611 11.9847 140.364 11.9847C138.941 16.7954 137.602 21.5217 136.179 26.3325H133.836C132.831 22.4501 131.492 18.6522 130.739 14.6854C129.734 18.6522 128.395 22.4501 127.307 26.3325H125.047C123.541 21.6061 122.118 16.8798 120.779 12.0691ZM145.972 11.7315C147.395 11.6471 148.818 11.7315 150.157 12.3223C150.492 12.9974 150.241 13.9258 150.325 14.7698C148.734 13.757 146.558 13.1662 144.884 14.179C143.712 14.8542 143.629 16.711 144.8 17.3862C146.474 18.4834 148.483 18.7366 149.99 20.087C151.58 21.6061 151.245 24.6445 149.32 25.8261C147.06 27.2609 144.047 27.1765 141.703 25.9949V23.4629C143.377 24.8133 145.805 25.4885 147.814 24.5601C148.985 23.9693 149.069 22.1125 147.981 21.3529C146.391 20.1714 144.131 19.9182 142.624 18.399C141.201 16.9642 141.452 14.2634 143.043 12.9974C143.796 12.2379 144.968 11.9847 145.972 11.7315Z" fill="white"/></svg>