<svg xmlns="http://www.w3.org/2000/svg" viewBox="0 0 185 23" fill="none"><path d="M11.3699 9.23258H11.4069C14.7924 11.8469 20.6311 18.3303 18.8551 20.1544C14.5704 23.9485 8.16932 23.9485 3.88465 20.1544C2.10862 18.3266 7.92881 11.8282 11.3329 9.23258C11.3449 9.22883 11.3578 9.22883 11.3699 9.23258ZM17.2937 1.68546C13.6565 -0.561821 9.08323 -0.561821 5.44977 1.68546C5.43497 1.70044 5.43497 1.72292 5.44977 1.7379C5.46087 1.75288 5.48307 1.75663 5.49787 1.74539C5.50157 1.74539 5.50157 1.74164 5.50527 1.7379C7.70681 1.24724 11.0517 3.20612 11.3699 3.37841H11.418C11.6955 3.18365 15.081 1.27721 17.2641 1.75663C17.2789 1.77161 17.3011 1.77161 17.3159 1.75663C17.3344 1.74539 17.3418 1.72292 17.3307 1.70419C17.3196 1.69295 17.3085 1.68546 17.2937 1.68546ZM3.41104 3.29976L3.35924 3.33721C-0.68863 7.41229 -1.13264 13.8882 2.32322 18.4839C2.32322 18.4839 2.36762 18.5139 2.38612 18.4839C2.40462 18.4539 2.38612 18.4502 2.38612 18.424C1.51661 15.716 5.94928 9.11648 8.23592 6.37854C8.23962 6.3673 8.23962 6.35606 8.23592 6.34483C8.23963 6.33262 8.23963 6.31958 8.23592 6.30737C4.78006 2.83158 3.59974 3.18365 3.41104 3.29976ZM14.4927 6.32235C14.489 6.33456 14.489 6.34761 14.4927 6.35981C14.489 6.37105 14.489 6.38228 14.4927 6.39352C16.7794 9.15393 21.212 15.731 20.3462 18.4427C20.3351 18.4614 20.3351 18.4876 20.3462 18.5064C20.3647 18.5176 20.3869 18.5176 20.4054 18.5064C23.8798 13.9107 23.4395 7.41603 19.3805 3.34096C19.3671 3.32534 19.3508 3.3126 19.3324 3.3035C19.1363 3.18365 17.9819 2.83158 14.4927 6.32235ZM39.5717 18.6038H37.2444L33.2409 13.0193L29.2375 18.6038H26.9101L32.0791 11.3975L27.3134 4.76424H29.6408L33.2409 9.77942L36.8522 4.76424H39.1795L34.4028 11.3975L39.5717 18.6038ZM51.6672 14.686C51.6931 15.2251 51.6006 15.7633 51.3966 16.262C51.1925 16.7606 50.8818 17.2073 50.4869 17.57C49.6988 18.2667 48.5518 18.6225 47.1014 18.6225H40.6633V12.4425H37.6181L38.8798 10.6746H40.6596V4.76424H46.8017C48.1818 4.76424 49.2511 5.09759 49.9874 5.74555C50.3509 6.07175 50.6386 6.47531 50.8298 6.92729C51.0211 7.37928 51.1112 7.8685 51.0937 8.35989C51.1307 9.62586 50.4351 10.7944 49.3177 11.3563C50.0119 11.6034 50.6157 12.0579 51.0493 12.6597C51.452 13.2472 51.6605 13.9487 51.645 14.6635L51.6672 14.686ZM42.7538 10.6746H46.6685C47.3102 10.7258 47.9484 10.538 48.463 10.1465C48.6695 9.93788 48.8292 9.68676 48.9313 9.41017C49.0335 9.13357 49.0757 8.83797 49.055 8.54342C49.0809 7.99283 48.8478 7.45723 48.4297 7.10516C47.9162 6.74066 47.2939 6.56729 46.6685 6.6145H42.7538V10.6746ZM49.5286 14.6261C49.5767 14.0081 49.3473 13.405 48.8996 12.9818C48.3354 12.5811 47.652 12.3893 46.9645 12.4387H42.7538V16.7722H46.9571C47.6453 16.8209 48.3298 16.6261 48.8922 16.2179C49.1133 16.0204 49.2867 15.7742 49.3989 15.4982C49.5112 15.2223 49.5594 14.9239 49.5397 14.6261H49.5286ZM65.6757 11.6859C65.6905 12.6859 65.5351 13.6785 65.2206 14.6261C64.9246 15.4688 64.4621 16.2404 63.8663 16.8996C63.2743 17.5513 62.5454 18.0644 61.7388 18.4015C59.9862 19.0644 58.056 19.0644 56.3034 18.4015C55.4968 18.0682 54.7753 17.5513 54.1907 16.8996C53.5839 16.2404 53.1177 15.4613 52.8217 14.6111C52.4924 13.6672 52.3296 12.6747 52.337 11.6709C52.3296 10.6708 52.4924 9.67455 52.8217 8.73069C53.1214 7.86923 53.5913 7.07894 54.2018 6.4085C54.7901 5.76803 55.5116 5.26613 56.3145 4.94028C58.0646 4.27733 59.9961 4.27733 61.7499 4.94028C62.5565 5.26613 63.2817 5.76803 63.8774 6.4085C64.4823 7.08231 64.9478 7.87189 65.2465 8.73069C65.5573 9.68204 65.709 10.6783 65.6905 11.6784L65.6757 11.6859ZM54.4978 11.6859C54.4238 13.0904 54.8641 14.4725 55.7373 15.5699C57.4208 17.4015 60.2514 17.5063 62.0644 15.8021C62.1458 15.7272 62.2198 15.6486 62.2938 15.5699C63.1004 14.6336 63.5148 13.3264 63.5148 11.6859C63.5962 10.2738 63.1596 8.88051 62.2938 7.76811C60.5844 5.93657 57.7279 5.85417 55.9186 7.58458C55.8557 7.64451 55.7965 7.70443 55.7373 7.76811C54.8724 8.8786 54.437 10.2701 54.5126 11.6821L54.4978 11.6859ZM72.2729 11.4012L77.0349 4.76798H74.7075L71.1111 9.78317L67.5109 4.76798H65.1836L69.9455 11.4012L64.7914 18.6H67.1187L71.1259 13.0155L75.1293 18.6H77.4567L72.2729 11.4012ZM101.692 4.76424H99.3314L94.007 18.6H96.1753L97.4962 15.0156H103.553L104.874 18.6H107.013L101.692 4.76424ZM98.1363 13.1766L100.497 6.83923L102.865 13.1766H98.1363ZM92.8859 11.3151V18.6038H90.9212V16.7909C90.4421 17.4641 89.805 18.006 89.0675 18.3678C88.2608 18.7386 87.3802 18.9221 86.4922 18.9071C85.582 18.9259 84.6792 18.7573 83.8356 18.4165C83.0475 18.0756 82.3444 17.555 81.7857 16.8996C81.1902 16.2347 80.7356 15.4533 80.45 14.6036C80.1392 13.656 79.9838 12.6634 79.9986 11.6634C79.9875 10.6634 80.1429 9.67081 80.4537 8.7232C80.7423 7.87298 81.2011 7.09392 81.8042 6.43097C82.3862 5.79046 83.1015 5.28895 83.8985 4.96275C84.76 4.62285 85.6787 4.45619 86.6032 4.47209C88.1017 4.41591 89.5707 4.88409 90.7695 5.79424C91.8499 6.68192 92.5566 7.95538 92.7342 9.35619V9.3824H90.5919C90.4296 8.50334 89.9444 7.71913 89.234 7.18756C88.4778 6.63364 87.5621 6.34793 86.6291 6.37479C85.3822 6.33359 84.1871 6.87294 83.3916 7.84302C82.5266 8.95474 82.0925 10.3479 82.1705 11.7608C82.0928 13.1728 82.5258 14.5661 83.3916 15.6785C84.2093 16.6449 85.4118 17.1842 86.6661 17.1468C87.7835 17.143 88.8529 16.7011 89.6558 15.9183C90.049 15.5692 90.3655 15.1405 90.5847 14.6598C90.804 14.1791 90.9211 13.6572 90.9286 13.1279H86.914V11.3151H92.8859ZM126.316 6.66694V10.6746H133.091V12.4425H126.316V16.7048H133.994V18.6038H124.229V4.76424H133.994V6.66319L126.316 6.66694ZM122.142 4.76424V18.6H120.129V7.62203C119.874 8.38985 119.526 9.34495 119.097 10.4686L116.011 18.6038H114.276L111.153 10.4836C110.787 9.50226 110.443 8.52469 110.143 7.67821V18.6075H108.13V4.76424H110.994L113.795 12.1129C114.357 13.5811 114.82 14.892 115.175 15.9482C115.59 14.6935 116.059 13.3376 116.574 11.9181L119.278 4.75675L122.142 4.76424ZM148.49 5.94032C147.531 5.10999 146.291 4.68844 145.031 4.76424H139.225V18.6H141.316V13.5024H145.042C146.304 13.5773 147.543 13.1578 148.502 12.3263C148.916 11.9127 149.239 11.4154 149.451 10.8669C149.662 10.3184 149.757 9.73091 149.73 9.14269C149.785 7.94789 149.334 6.78305 148.49 5.94032ZM141.298 6.61076H144.99C145.693 6.56206 146.389 6.79803 146.925 7.26247C147.156 7.51093 147.334 7.80468 147.448 8.12553C147.562 8.44637 147.609 8.78747 147.588 9.12771C147.643 9.82437 147.406 10.5135 146.929 11.0192C146.391 11.479 145.697 11.7087 144.994 11.6596H141.301L141.298 6.61076ZM172.822 14.7646C172.844 15.3491 172.728 15.9304 172.482 16.4597C172.236 16.989 171.868 17.4507 171.409 17.806C170.469 18.5401 169.159 18.9146 167.505 18.9146C165.707 18.9146 164.286 18.4951 163.291 17.6711C162.778 17.2231 162.373 16.6619 162.108 16.0307C161.844 15.3995 161.725 14.7153 161.763 14.0305H163.849C163.831 14.4639 163.908 14.896 164.076 15.2952C164.244 15.6944 164.498 16.0506 164.819 16.3377C165.618 16.9071 166.587 17.1805 167.564 17.1131C168.378 17.1617 169.189 16.9557 169.881 16.525C170.145 16.3329 170.357 16.0763 170.497 15.7791C170.638 15.4818 170.702 15.1535 170.683 14.8246C170.696 14.556 170.642 14.2886 170.526 14.0466C170.41 13.8046 170.237 13.5956 170.021 13.4387C169.277 12.9925 168.456 12.6938 167.601 12.5586L166.436 12.3076C165.27 12.1316 164.175 11.6484 163.25 10.9068C162.888 10.5651 162.605 10.1471 162.42 9.68246C162.235 9.21779 162.154 8.71772 162.181 8.21756C162.166 7.68872 162.277 7.16409 162.505 6.68769C162.732 6.21129 163.069 5.79701 163.487 5.47962C164.519 4.753 165.762 4.39344 167.02 4.45711C168.8 4.45711 170.162 4.85413 171.061 5.62944C171.512 6.0284 171.871 6.52322 172.113 7.07867C172.354 7.63412 172.471 8.23654 172.456 8.84306H170.41C170.41 8.09396 170.095 7.38232 169.544 6.88417C169.037 6.47217 168.197 6.26243 167.061 6.26243C166.347 6.21374 165.637 6.38228 165.022 6.75308C164.796 6.9097 164.614 7.1217 164.491 7.36929C164.368 7.61688 164.309 7.89197 164.319 8.16887C164.286 8.71571 164.519 9.24757 164.945 9.5884C165.648 10.0491 166.443 10.3487 167.272 10.4761L168.456 10.727C170.01 11.0641 171.142 11.5548 171.842 12.1953C172.179 12.5262 172.441 12.9273 172.611 13.3709C172.78 13.8145 172.852 14.2901 172.822 14.7646ZM184.984 14.7646C185.006 15.3491 184.89 15.9304 184.644 16.4597C184.398 16.989 184.03 17.4507 183.571 17.806C182.631 18.5401 181.321 18.9146 179.66 18.9146C177.865 18.9146 176.448 18.4951 175.445 17.6711C174.443 16.8471 173.932 15.6186 173.917 14.0305H176.008C175.989 14.4639 176.067 14.896 176.234 15.2952C176.402 15.6944 176.656 16.0506 176.977 16.3377C177.776 16.9071 178.746 17.1805 179.723 17.1131C180.537 17.1617 181.343 16.9595 182.035 16.525C182.301 16.3337 182.514 16.0774 182.655 15.78C182.796 15.4827 182.86 15.1539 182.842 14.8246C182.854 14.556 182.8 14.2886 182.684 14.0466C182.569 13.8046 182.395 13.5956 182.18 13.4387C181.435 12.9925 180.614 12.6938 179.76 12.5586L178.594 12.3076C177.428 12.1312 176.328 11.6481 175.405 10.9068C175.041 10.5662 174.755 10.1487 174.569 9.68393C174.382 9.2192 174.299 8.71859 174.324 8.21756C174.309 7.68826 174.421 7.1631 174.649 6.68652C174.877 6.20994 175.215 5.79597 175.634 5.47962C176.666 4.74926 177.91 4.38969 179.168 4.45711C180.955 4.45711 182.313 4.85413 183.212 5.62944C183.663 6.0284 184.022 6.52322 184.264 7.07867C184.505 7.63412 184.622 8.23654 184.607 8.84306H182.55C182.546 8.09396 182.231 7.38607 181.684 6.88417C181.177 6.47217 180.337 6.26243 179.197 6.26243C178.487 6.21413 177.778 6.38522 177.166 6.75308C176.94 6.9097 176.757 7.1217 176.634 7.36929C176.511 7.61688 176.452 7.89197 176.463 8.16887C176.43 8.71571 176.663 9.24757 177.088 9.5884C177.791 10.0491 178.587 10.3487 179.416 10.4761L180.6 10.727C182.154 11.0641 183.286 11.5548 183.985 12.1953C184.327 12.5255 184.595 12.9268 184.769 13.3716C184.944 13.8165 185.021 14.2943 184.995 14.7721H184.984V14.7646ZM155.95 4.76424H153.589L148.265 18.6H150.433L151.754 15.0156H157.822L159.143 18.6H161.311L155.95 4.76424ZM152.42 13.1766L154.788 6.83923L157.149 13.1766H152.42Z" fill="white"/></svg>