<svg width="153" height="33" viewBox="0 0 153 33" fill="none" xmlns="http://www.w3.org/2000/svg"><g clip-path="url(#clip0_81_815)"><path fill-rule="evenodd" clip-rule="evenodd" d="M3.20561 28.0102C-0.15596 27.0566 -0.726765 25.0882 0.809776 23.9541C2.23061 22.9025 4.6465 22.1174 4.6465 22.1174L14.6232 18.5816V22.6102L7.44345 25.1709C6.17377 25.6301 5.97942 26.2668 7.0115 26.602C8.04353 26.9372 9.90869 26.8424 11.1768 26.3893L14.6201 25.1434V28.748C14.4026 28.7878 14.1573 28.826 13.9336 28.8627C10.3408 29.4441 6.65938 29.1516 3.20561 28.0102ZM24.2544 28.4296L35.4498 24.4653C36.721 24.0061 36.9154 23.3725 35.8833 23.0372C34.8512 22.702 32.9861 22.797 31.718 23.2515L24.2574 25.8628V21.701L24.6894 21.5556C26.375 21.0146 28.1127 20.6488 29.8745 20.4643C32.9059 20.1321 36.6177 20.5102 39.5303 21.6061C42.8147 22.6378 43.185 24.1577 42.3504 25.2046C41.5158 26.2515 39.4701 26.9969 39.4701 26.9969L24.2574 32.4291L24.2544 28.4296ZM25.5641 2.62806C31.4589 4.64694 33.4567 7.16023 33.4567 12.8235C33.4567 18.3413 30.0411 20.4337 25.703 18.3444V8.05409C25.703 6.84794 25.4808 5.73672 24.3454 5.42143C23.4753 5.14286 22.9354 5.94951 22.9354 7.15561V32.9082L15.9746 30.7041V0C18.9351 0.547959 23.247 1.83674 25.5641 2.62194V2.62806ZM40.5284 30.8143C40.5335 30.8547 40.5286 30.8958 40.5141 30.9339C40.4995 30.9721 40.4759 31.0061 40.4451 31.0331C40.3689 31.0799 40.2801 31.1023 40.1906 31.0974H39.6553V30.5479H40.223C40.2864 30.5455 40.3496 30.557 40.4081 30.5817C40.4492 30.6041 40.4826 30.6383 40.504 30.6797C40.5255 30.7212 40.534 30.768 40.5284 30.8143ZM40.9126 32.0663C40.8973 32.0571 40.8843 32.0446 40.8744 32.0298C40.8645 32.015 40.8581 31.9982 40.8555 31.9806C40.8442 31.9304 40.839 31.879 40.8401 31.8276L40.8293 31.578C40.8336 31.487 40.81 31.3968 40.7614 31.3194C40.7289 31.2811 40.6897 31.249 40.6457 31.2245C40.7036 31.1871 40.7534 31.1388 40.7922 31.0822C40.8452 30.9922 40.8714 30.8893 40.8678 30.7852C40.8754 30.6861 40.8521 30.5872 40.8011 30.5017C40.75 30.4163 40.6737 30.3486 40.5824 30.3076C40.4667 30.2602 40.342 30.2377 40.2168 30.2419H39.3205V32.1857H39.6553V31.3883H40.1828C40.2526 31.3844 40.3225 31.3948 40.3881 31.4189C40.4242 31.4394 40.4538 31.4697 40.4732 31.5064C40.4926 31.5429 40.501 31.5843 40.4976 31.6255L40.513 31.9316C40.5137 31.9829 40.5184 32.0341 40.5269 32.0847C40.5316 32.1102 40.5399 32.135 40.5516 32.1582L40.5639 32.1811H40.9373V32.0679L40.9126 32.0663ZM38.6155 31.2551C38.6142 30.8708 38.7662 30.5016 39.0382 30.2281C39.1708 30.093 39.3294 29.9857 39.5045 29.9124C39.6797 29.8391 39.8679 29.8014 40.0579 29.8014C40.248 29.8014 40.4361 29.8391 40.6112 29.9124C40.7864 29.9857 40.945 30.093 41.0776 30.2281C41.2788 30.4312 41.4155 30.6883 41.471 30.9677C41.5264 31.247 41.4981 31.5364 41.3897 31.8C41.2812 32.0636 41.0972 32.29 40.8606 32.451C40.6239 32.612 40.3448 32.7007 40.0579 32.7061C39.8679 32.7063 39.6798 32.6687 39.5047 32.5956C39.3295 32.5225 39.1709 32.4155 39.0382 32.2806C38.7665 32.0074 38.6146 31.6389 38.6155 31.2551ZM40.0579 33C40.2863 33.0003 40.5124 32.9551 40.7228 32.867C40.9333 32.7789 41.1237 32.6498 41.2828 32.4872C41.6081 32.1577 41.7902 31.7148 41.7902 31.2536C41.7902 30.7923 41.6081 30.3494 41.2828 30.0199C41.1234 29.8579 40.9329 29.7291 40.7225 29.6414C40.5121 29.5535 40.2861 29.5084 40.0579 29.5087C39.713 29.5151 39.3775 29.6217 39.0931 29.8153C38.8086 30.0089 38.5875 30.281 38.4572 30.5979C38.3268 30.9148 38.293 31.2627 38.3598 31.5984C38.4266 31.9342 38.5911 32.2432 38.833 32.4872C38.9922 32.6498 39.1826 32.7789 39.393 32.867C39.6034 32.9551 39.8296 33.0003 40.0579 33Z" fill="white"/><path d="M149.73 26.3893H149.434V24.3766H148.755V24.095H150.412V24.3766H149.733L149.73 26.3893ZM151.783 25.8567L152.417 24.095H152.88V26.3909H152.571V24.4715L151.87 26.3893H151.681L150.983 24.4715V26.3893H150.689V24.0934H151.152L151.783 25.8567ZM145.783 6.57251H117.398V14.2072C117.398 14.2072 117.311 17.1552 120.986 17.1552H138.337C139.018 17.1496 139.692 17.2857 140.316 17.5546C141.285 17.9832 142.374 18.8557 142.374 20.6159C142.374 22.1955 141.603 23.0924 140.839 23.5945C140.207 23.9996 139.469 24.2125 138.717 24.2067H117.398V26.3495H141.169C141.169 26.3495 146.569 26.1322 146.569 20.6266C146.569 17.8271 144.921 16.4404 143.439 15.7608C142.481 15.3242 141.438 15.1001 140.384 15.1042H123.188C122.901 15.1079 122.618 15.0411 122.364 14.9097C121.996 14.7123 121.592 14.3205 121.592 13.549V8.68627H145.783V6.57251ZM81.6698 24.199V26.3419H93.7186C95.1588 26.357 96.5557 25.8553 97.6528 24.9291C98.2182 24.4528 98.6694 23.8571 98.9732 23.1855C99.277 22.5139 99.4256 21.7834 99.4078 21.0475V11.9389C99.4017 11.4407 99.5098 10.9477 99.7238 10.497C99.9372 10.0463 100.252 9.64954 100.642 9.33681C101.197 8.90599 101.884 8.67648 102.588 8.68627H113.092V6.57251H100.582C100.582 6.57251 95.1826 6.6582 95.1826 12.3245V20.8302C95.192 21.5267 95.003 22.2118 94.6366 22.8062C94.3716 23.2457 93.993 23.607 93.5401 23.8527C93.0872 24.0984 92.5761 24.2195 92.06 24.2036L81.6698 24.199ZM53.8518 6.57251V8.68627H75.3264C75.9234 8.68121 76.5149 8.80721 77.0571 9.05515C77.9091 9.45159 78.8654 10.2674 78.8654 11.922C78.8654 13.5291 77.9091 14.3327 77.0571 14.7307C76.5061 14.9818 75.9051 15.1093 75.2987 15.1042H59.3717C58.4288 15.0954 57.4969 15.305 56.6504 15.7164C55.3251 16.3761 53.8518 17.9296 53.8518 20.4919V26.3082H57.9847V20.5179C57.982 20.1412 58.0507 19.7675 58.1871 19.4159C58.528 18.548 59.39 17.1552 61.4067 17.1552H77.4662C78.0061 17.1581 78.5444 17.0865 79.0644 16.9424C80.5389 16.5261 82.998 15.323 82.998 11.922C82.998 6.63681 77.6962 6.57251 77.6962 6.57251H53.8518Z" fill="white"/></g><defs><clipPath id="clip0_81_815"><rect width="153" height="33" fill="white"/></clipPath></defs></svg>
