<svg xmlns="http://www.w3.org/2000/svg" viewBox="0 0 151 30" fill="none"><path d="M90.9424 24.0493L85.5509 16.5841L80.1593 24.0493H77.941L84.4224 15.0216L78.5004 6.82337H80.7187L85.5509 13.517L90.3733 6.82337H92.5917L86.6697 15.0216L93.1607 24.0589L90.9424 24.0493ZM48.8999 24.0493L42.4089 15.0216L48.3309 6.81372H46.1125L41.2901 13.5073L36.4579 6.82337H34.2492L40.1712 15.0216L33.6802 24.0493H35.8985L41.2901 16.5841L46.6816 24.0493H48.8999Z" fill="white"/><path d="M61.2453 15.677C60.9078 15.3876 60.5413 15.1465 60.1362 14.9536C61.39 14.2592 62.1713 12.9378 62.1713 11.5007C62.1713 10.4012 61.7758 6.81326 56.6833 6.81326H49.8257V14.2399H47.5398C47.1155 14.8089 46.7104 15.3876 46.3149 15.9663H49.8257V24.0392H56.6833C60.3966 24.0392 62.7017 22.1198 62.7017 19.0045C62.7017 17.6639 62.2002 16.5065 61.2453 15.677ZM56.6833 8.61687C58.0239 8.61687 60.2712 8.95444 60.2712 11.356C60.2712 13.1693 58.9595 14.2495 56.6833 14.2495H51.7161V8.61687H56.6833ZM56.6833 22.2549H51.7161V15.9856H56.6833C58.564 15.9856 60.821 16.5161 60.821 18.9852C60.8113 21.8208 58.2265 22.2549 56.6833 22.2549ZM71.6233 6.41781C66.878 6.41781 63.5698 10.1215 63.5698 15.4166C63.5698 20.7213 66.8877 24.425 71.6233 24.425C76.359 24.425 79.6672 20.731 79.6672 15.4166C79.6769 10.1215 76.3687 6.41781 71.6233 6.41781ZM71.6233 22.6117C68.0065 22.6117 65.4795 19.6507 65.4795 15.4262C65.4795 11.2017 68.0065 8.24071 71.6233 8.24071C75.2306 8.24071 77.7479 11.1921 77.7479 15.4262C77.7479 19.6604 75.2402 22.6117 71.6233 22.6117ZM4.71616 4.97107L4.70651 4.99036C2.01299 7.70593 0.507461 11.3796 0.520593 15.2044C0.512242 18.3389 1.52077 21.3915 3.3948 23.9042C3.41409 23.9331 3.44302 23.9427 3.47195 23.9331C3.50089 23.9138 3.50089 23.8849 3.49124 23.8559C2.41101 20.4705 7.899 12.2627 10.7346 8.81941C10.7443 8.80977 10.7539 8.79048 10.7539 8.77119C10.7539 8.7519 10.7443 8.73261 10.725 8.72296C5.96036 3.89083 4.68722 5 4.70651 4.98071L4.71616 4.97107ZM24.4787 4.97107L24.4884 4.98071C27.1838 7.69895 28.6894 11.3763 28.6743 15.2044C28.6826 18.3389 27.6741 21.3915 25.8001 23.9042C25.7808 23.9331 25.7518 23.9427 25.7229 23.9331C25.7036 23.9138 25.7036 23.8849 25.7036 23.8559C26.7742 20.4705 21.2959 12.253 18.4602 8.80977C18.4501 8.79913 18.4434 8.78569 18.441 8.77119C18.441 8.7519 18.4506 8.73261 18.4699 8.72296C23.2345 3.88118 24.498 5 24.4884 4.98071C24.4787 4.99036 24.4787 4.97107 24.4787 4.97107ZM14.6023 0.843018C17.4379 0.843018 19.7816 1.63391 21.9324 2.94562C21.9614 2.95527 21.971 2.99385 21.9517 3.01314C21.9421 3.04207 21.9131 3.04207 21.8842 3.04207C19.1547 2.44408 15.017 4.84568 14.6215 5.08681C14.6119 5.09645 14.6023 5.09645 14.5926 5.09645C14.583 5.09645 14.5733 5.09645 14.5637 5.08681C13.522 4.47917 9.69296 2.43444 7.28172 3.06136C7.25278 3.07101 7.22385 3.06136 7.2142 3.03243C7.20456 3.00349 7.2142 2.97456 7.24314 2.96491C9.39397 1.64355 11.7666 0.843018 14.6023 0.843018ZM14.6023 12.3591C14.6215 12.3591 14.6312 12.3688 14.6505 12.3784C18.8653 15.6481 26.0701 23.7305 23.8711 26.0164C21.3251 28.3023 18.0239 29.5665 14.6023 29.5658C11.1783 29.5658 7.87971 28.3023 5.33343 26.0164C3.13438 23.7305 10.3488 15.6481 14.554 12.3784C14.5637 12.3784 14.583 12.3591 14.6023 12.3591ZM138.617 15.1272L140.826 12.0312C140.1 11.8551 139.411 11.5514 138.791 11.1342C138.174 10.652 137.826 9.89965 137.875 9.11841C137.836 8.32752 138.212 7.57521 138.868 7.13154C139.727 6.61071 140.72 6.35994 141.723 6.42746C145.61 6.42746 146.623 8.51077 147.307 9.39811L149.391 6.47568C149.044 5.88734 148.59 5.36651 148.069 4.93249C146.613 3.70757 144.481 3.09994 141.656 3.09994C139.167 3.09994 137.228 3.65935 135.83 4.76852C135.15 5.29683 134.605 5.97871 134.24 6.75828C133.874 7.53785 133.699 8.39293 133.727 9.25344C133.727 12.2048 135.357 14.0856 138.617 15.1272ZM149.333 14.9729C148.359 14.0856 146.854 13.3911 144.8 12.8896L142.562 16.0242C143.739 16.2653 144.848 16.7283 145.841 17.4034C146.468 17.8471 146.825 18.5898 146.787 19.3614C146.835 20.2776 146.42 21.165 145.677 21.7051C144.713 22.3031 143.594 22.5924 142.466 22.5153C139.235 22.5153 137.711 21.4254 136.148 18.5801L133.92 21.7051C134.316 22.5346 134.885 23.2772 135.598 23.8656C137.19 25.1966 139.437 25.8524 142.34 25.8524C145.06 25.8524 147.192 25.2641 148.706 24.0971C149.456 23.518 150.055 22.7669 150.452 21.9073C150.85 21.0478 151.035 20.105 150.992 19.1588C151.079 17.577 150.471 16.0531 149.333 14.9729ZM129.185 3.57255H130.11V25.3605H129.185V3.57255ZM102.738 3.46645C103.047 3.45681 103.346 3.59184 103.529 3.8426C103.915 4.50811 103.895 5.34722 103.49 6.00308C103.269 6.27314 102.931 6.41781 102.584 6.40817V5.74266C102.786 5.76195 102.979 5.67515 103.105 5.52083C103.22 5.32793 103.278 5.1061 103.259 4.87462C103.271 4.69226 103.228 4.51043 103.133 4.35379C103.092 4.29523 103.037 4.24783 102.973 4.21583C102.909 4.18384 102.838 4.16828 102.767 4.17053C102.642 4.17053 102.526 4.2284 102.458 4.32485C102.362 4.49846 102.294 4.69136 102.275 4.88426L102.217 5.18326C102.179 5.4919 102.044 5.79089 101.851 6.03201C101.677 6.22491 101.426 6.32136 101.166 6.32136C101.028 6.32505 100.891 6.29541 100.767 6.23498C100.642 6.17454 100.535 6.08507 100.452 5.97414C100.259 5.69444 100.172 5.35687 100.192 5.00965C100.163 4.63349 100.269 4.25734 100.481 3.9487C100.684 3.70758 100.983 3.5629 101.301 3.57255V4.2284C101.137 4.2284 100.973 4.30556 100.867 4.43095C100.761 4.60456 100.713 4.79746 100.722 5C100.713 5.16397 100.751 5.32793 100.828 5.46296C100.896 5.56906 101.012 5.62692 101.137 5.62692C101.262 5.62692 101.378 5.5787 101.455 5.48225C101.552 5.31829 101.619 5.13503 101.638 4.94213L101.696 4.63349C101.735 4.30556 101.86 3.99692 102.063 3.73651C102.246 3.55326 102.487 3.45681 102.738 3.46645ZM102.073 22.6985C101.88 22.9589 101.754 23.2676 101.706 23.5955L101.648 23.9042C101.619 24.0971 101.561 24.2803 101.465 24.4443C101.388 24.5407 101.272 24.5986 101.147 24.5889C101.021 24.5889 100.905 24.5311 100.838 24.425C100.76 24.2836 100.723 24.1232 100.732 23.962C100.713 23.7595 100.761 23.5569 100.877 23.393C100.983 23.2676 101.147 23.1904 101.311 23.1904V22.5346C100.992 22.5346 100.693 22.6696 100.491 22.9107C100.279 23.2194 100.172 23.5955 100.201 23.9717C100.182 24.3092 100.279 24.6565 100.462 24.9362C100.626 25.158 100.896 25.293 101.176 25.2834C101.436 25.293 101.677 25.1869 101.86 24.994C102.063 24.7529 102.188 24.4539 102.227 24.1453L102.285 23.8463C102.314 23.6437 102.381 23.4605 102.468 23.2869C102.535 23.1904 102.651 23.1326 102.777 23.1326C102.921 23.1229 103.066 23.1904 103.143 23.3158C103.24 23.4701 103.278 23.6534 103.269 23.8366C103.288 24.0585 103.23 24.29 103.114 24.4829C102.989 24.6372 102.786 24.724 102.584 24.7047V25.3702C102.931 25.3895 103.269 25.2352 103.49 24.9651C103.895 24.3092 103.915 23.4798 103.529 22.8046C103.346 22.5539 103.047 22.4188 102.738 22.4285C102.614 22.4211 102.49 22.4415 102.375 22.4882C102.26 22.5349 102.156 22.6068 102.073 22.6985ZM102.381 16.3328V15.4648C102.372 15.3201 102.41 15.1658 102.507 15.0501C102.632 14.9536 102.786 14.8957 102.941 14.9054L103.317 14.8861C103.461 14.8861 103.606 14.8572 103.731 14.7897V14.0952L103.722 14.1145C103.596 14.1917 103.461 14.2206 103.317 14.2206L102.806 14.2495C102.642 14.2495 102.468 14.2881 102.323 14.3749C102.197 14.4632 102.105 14.5927 102.063 14.7414C102.009 14.5661 101.898 14.4138 101.748 14.3089C101.598 14.204 101.416 14.1525 101.233 14.1627C101.071 14.1583 100.911 14.1982 100.77 14.2781C100.629 14.358 100.512 14.4748 100.433 14.616L100.462 14.5775C100.336 14.78 100.269 15.0115 100.269 15.2526V15.1754C100.259 15.2526 100.259 15.3298 100.259 15.4069V17.008H103.722V16.3328H102.381ZM101.851 16.3425H100.809V15.4841C100.799 15.3201 100.848 15.1658 100.934 15.0308C101.031 14.9247 101.166 14.8572 101.311 14.8668C101.455 14.8572 101.61 14.915 101.706 15.0211C101.802 15.1465 101.851 15.3008 101.841 15.4552V16.3425H101.851ZM100.269 12.0119H103.731V12.687H100.269V12.0119ZM100.867 7.76811H100.269V10.3723H103.731V7.76811H103.133V9.6971H102.246V7.95136H101.677V9.6971H100.857L100.867 7.76811ZM100.867 18.4644H100.269V21.0685H103.731V18.4644H103.133V20.3934H102.246V18.6476H101.677V20.3934H100.857L100.867 18.4644ZM105.236 25.3605H109.827L113.319 20.4705L111.023 17.2491L105.236 25.3605ZM125.375 3.57255H120.774L117.919 7.57521L120.215 10.7966L125.375 3.57255ZM110.464 3.57255H105.873L121.411 25.3605H126.002L110.464 3.57255Z" fill="white"/></svg>