<svg width="131" height="39" viewBox="0 0 131 39" fill="none" xmlns="http://www.w3.org/2000/svg"><path d="M19.6772 0C9.3074 0 0.807981 7.89963 0 17.9373L10.5841 22.2574C11.4814 21.6534 12.5661 21.2964 13.7312 21.2964C13.8339 21.2964 13.941 21.3008 14.0437 21.3052L18.7487 14.5693C18.7487 14.5385 18.7487 14.5076 18.7487 14.4724C18.7487 10.4168 22.0878 7.11936 26.1946 7.11936C30.3015 7.11936 33.6406 10.4168 33.6406 14.4724C33.6406 18.528 30.3015 21.8254 26.1946 21.8254C26.1366 21.8254 26.083 21.8254 26.025 21.821L19.3112 26.5554C19.3156 26.6436 19.3156 26.7274 19.3156 26.8155C19.3156 29.8616 16.8069 32.3347 13.7267 32.3347C11.0216 32.3347 8.75833 30.4259 8.24497 27.9L0.678525 24.8142C3.02212 33.0003 10.6377 39 19.6772 39C30.5827 39 39.4259 30.2672 39.4259 19.4978C39.4259 8.73279 30.5872 0 19.6772 0Z" fill="white"/><path d="M12.3741 29.5883L9.9502 28.6009C10.3787 29.4869 11.1242 30.2231 12.1108 30.6331C14.2445 31.5103 16.7042 30.5096 17.597 28.4025C18.0255 27.3798 18.03 26.2557 17.6015 25.2329C17.1774 24.2102 16.3694 23.4123 15.3382 22.9847C14.3115 22.5615 13.2134 22.5792 12.2447 22.9406L14.749 23.9634C16.3248 24.6114 17.0658 26.3967 16.4096 27.9528C15.7578 29.5001 13.9499 30.2363 12.3741 29.5883Z" fill="white"/><path d="M31.1586 14.4723C31.1586 11.77 28.9311 9.57031 26.1947 9.57031C23.4582 9.57031 21.2307 11.77 21.2307 14.4723C21.2307 17.1746 23.4582 19.3743 26.1947 19.3743C28.9311 19.3743 31.1586 17.1746 31.1586 14.4723ZM22.4762 14.4679C22.4762 12.4357 24.1457 10.787 26.2036 10.787C28.2615 10.787 29.931 12.4357 29.931 14.4679C29.931 16.5001 28.2615 18.1488 26.2036 18.1488C24.1457 18.1488 22.4762 16.5001 22.4762 14.4679Z" fill="white"/><path d="M60.5138 13.3439L59.1924 15.6406C58.1746 14.9352 56.7908 14.5121 55.5855 14.5121C54.2061 14.5121 53.3535 15.0763 53.3535 16.0858C53.3535 17.3113 54.8668 17.5978 57.1211 18.3957C59.5406 19.2421 60.9334 20.234 60.9334 22.4205C60.9334 25.4137 58.5496 27.0977 55.1213 27.0977C53.4517 27.0977 51.434 26.6701 49.885 25.7399L50.8492 23.1919C52.1081 23.8488 53.6124 24.2367 54.9561 24.2367C56.764 24.2367 57.6256 23.5755 57.6256 22.6056C57.6256 21.4904 56.3132 21.1553 54.1972 20.4632C51.7867 19.6697 50.1127 18.625 50.1127 16.2004C50.1127 13.4673 52.3268 11.8979 55.5141 11.8979C57.7372 11.9024 59.5228 12.5989 60.5138 13.3439Z" fill="white"/><path d="M70.8567 14.7942V26.8464H67.7409V14.7942H63.2189V12.1536H75.3654V14.7942H70.8567Z" fill="white"/><path d="M81.9363 14.7854V18.096H87.9002V20.7365H81.9363V24.1838H88.8555V26.8464H78.825V12.1536H88.8555V14.7854H81.9363Z" fill="white"/><path d="M95.8059 23.9942L94.8194 26.8464H91.5518L97.1317 12.1536H100.265L106.002 26.8464H102.627L101.622 23.9942H95.8059ZM98.6807 15.6582L96.6496 21.5388H100.756L98.6807 15.6582Z" fill="white"/><path d="M121.992 17.8315L117.921 26.4144H116.162L112.158 17.9064V26.8464H109.176V12.1536H112.153L117.153 22.7599L121.974 12.1536H124.978V26.8464H121.996L121.992 17.8315Z" fill="white"/><path d="M131 14.0095C131 15.2703 130.04 16.0594 128.942 16.0594C127.84 16.0594 126.88 15.2703 126.88 14.0095C126.88 12.7488 127.84 11.9641 128.942 11.9641C130.04 11.9641 131 12.7444 131 14.0095ZM127.223 14.0095C127.223 15.0675 127.991 15.7288 128.942 15.7288C129.888 15.7288 130.652 15.0675 130.652 14.0095C130.652 12.9516 129.884 12.2947 128.942 12.2947C127.996 12.2947 127.223 12.956 127.223 14.0095ZM128.969 12.9648C129.5 12.9648 129.683 13.2425 129.683 13.5423C129.683 13.82 129.518 14.0051 129.317 14.0977L129.795 14.9838H129.402L129 14.1991H128.585V14.9838H128.259V12.9648H128.969V12.9648ZM128.585 13.9038H128.951C129.188 13.9038 129.326 13.7583 129.326 13.5731C129.326 13.388 129.228 13.269 128.951 13.269H128.589V13.9038H128.585Z" fill="white"/></svg>
